<svg xmlns="http://www.w3.org/2000/svg" viewBox="0 0 1600 900" width="1600" height="900"><rect width="1600" height="900" fill="#EFE9DD"/><line x1="256.0" y1="162.0" x2="256.0" y2="702.0" stroke="#E2DBCE" stroke-width="2.0" opacity="1.0"/><line x1="411.4" y1="162.0" x2="411.4" y2="702.0" stroke="#E2DBCE" stroke-width="2.0" opacity="1.0"/><line x1="566.9" y1="162.0" x2="566.9" y2="702.0" stroke="#E2DBCE" stroke-width="2.0" opacity="1.0"/><line x1="722.3" y1="162.0" x2="722.3" y2="702.0" stroke="#E2DBCE" stroke-width="2.0" opacity="1.0"/><line x1="877.7" y1="162.0" x2="877.7" y2="702.0" stroke="#E2DBCE" stroke-width="2.0" opacity="1.0"/><line x1="1033.1" y1="162.0" x2="1033.1" y2="702.0" stroke="#E2DBCE" stroke-width="2.0" opacity="1.0"/><line x1="1188.6" y1="162.0" x2="1188.6" y2="702.0" stroke="#E2DBCE" stroke-width="2.0" opacity="1.0"/><line x1="1344.0" y1="162.0" x2="1344.0" y2="702.0" stroke="#E2DBCE" stroke-width="2.0" opacity="1.0"/><line x1="256.0" y1="162.0" x2="1344.0" y2="162.0" stroke="#E2DBCE" stroke-width="2.0" opacity="1.0"/><line x1="256.0" y1="342.0" x2="1344.0" y2="342.0" stroke="#E2DBCE" stroke-width="2.0" opacity="1.0"/><line x1="256.0" y1="522.0" x2="1344.0" y2="522.0" stroke="#E2DBCE" stroke-width="2.0" opacity="1.0"/><line x1="256.0" y1="702.0" x2="1344.0" y2="702.0" stroke="#E2DBCE" stroke-width="2.0" opacity="1.0"/><rect x="256.0" y="162.0" width="155.4" height="180.0" fill="none" stroke="#D89A5C" stroke-width="3.6" opacity="1.0"/><text x="1570" y="874" text-anchor="end" fill="#6B655C" font-family="Georgia, Times New Roman, serif" font-size="30.6" letter-spacing="6.73">KIDE</text><text x="30" y="874" fill="#6B655C" opacity=".5" font-family="Helvetica, Arial, sans-serif" font-size="22.0" letter-spacing="4.90">PLACEHOLDER</text></svg>