<svg xmlns="http://www.w3.org/2000/svg" viewBox="0 0 900 1200" width="900" height="1200"><rect width="900" height="1200" fill="#EFE9DD"/><polyline points="144.0,984.0 144.1,962.2 144.4,940.4 144.8,918.5 145.0,896.7 144.8,874.9 144.0,853.1 142.9,831.3 141.6,809.5 140.7,787.6 140.6,765.8 141.7,744.0 143.8,722.2 146.5,700.4 149.1,678.5 150.6,656.7 150.5,634.9 148.3,613.1 144.5,591.3 140.0,569.5 135.9,547.6 133.6,525.8 134.0,504.0 137.3,482.2 142.9,460.4 149.5,438.5 155.3,416.7 158.6,394.9 158.0,373.1 153.5,351.3 145.8,329.5 136.9,307.6 129.2,285.8 124.9,264.0" fill="none" stroke="#E2DBCE" stroke-width="2.4" opacity="0.85"/><polyline points="246.0,984.0 246.1,962.2 246.2,940.4 245.9,918.5 245.3,896.7 244.6,874.9 244.1,853.1 244.1,831.3 244.8,809.5 246.3,787.6 248.2,765.8 250.0,744.0 250.9,722.2 250.5,700.4 248.6,678.5 245.5,656.7 241.9,634.9 239.0,613.1 237.5,591.3 238.4,569.5 241.6,547.6 246.6,525.8 252.0,504.0 256.5,482.2 258.5,460.4 257.2,438.5 252.5,416.7 245.5,394.9 237.9,373.1 231.8,351.3 229.1,329.5 230.9,307.6 237.0,285.8 246.2,264.0" fill="none" stroke="#E2DBCE" stroke-width="2.4" opacity="0.85"/><polyline points="348.0,984.0 347.9,962.2 347.6,940.4 347.3,918.5 347.2,896.7 347.6,874.9 348.5,853.1 349.6,831.3 350.7,809.5 351.2,787.6 350.8,765.8 349.3,744.0 347.0,722.2 344.3,700.4 342.3,678.5 341.5,656.7 342.6,634.9 345.5,613.1 349.6,591.3 354.0,569.5 357.2,547.6 358.3,525.8 356.5,504.0 352.0,482.2 345.9,460.4 339.6,438.5 335.0,416.7 333.5,394.9 336.1,373.1 342.2,351.3 350.5,329.5 359.0,307.6 365.1,285.8 367.0,264.0" fill="none" stroke="#E2DBCE" stroke-width="2.4" opacity="0.85"/><polyline points="450.0,984.0 449.9,962.2 449.9,940.4 450.3,918.5 450.9,896.7 451.5,874.9 451.8,853.1 451.5,831.3 450.5,809.5 448.8,787.6 447.1,765.8 445.7,744.0 445.4,722.2 446.5,700.4 448.9,678.5 452.2,656.7 455.4,634.9 457.7,613.1 458.0,591.3 456.1,569.5 452.0,547.6 446.8,525.8 441.8,504.0 438.5,482.2 438.1,460.4 441.0,438.5 446.8,416.7 454.2,394.9 461.1,373.1 465.7,351.3 466.2,329.5 462.3,307.6 454.6,285.8 444.9,264.0" fill="none" stroke="#F2C9A5" stroke-width="3.6" opacity="1"/><polyline points="552.0,984.0 552.1,962.2 552.4,940.4 552.7,918.5 552.6,896.7 552.0,874.9 551.1,853.1 550.0,831.3 549.2,809.5 549.1,787.6 549.9,765.8 551.8,744.0 554.2,722.2 556.6,700.4 558.0,678.5 557.9,656.7 556.0,634.9 552.5,613.1 548.3,591.3 544.5,569.5 542.3,547.6 542.6,525.8 545.6,504.0 550.9,482.2 557.2,460.4 562.7,438.5 565.8,416.7 565.4,394.9 561.1,373.1 553.8,351.3 545.3,329.5 537.9,307.6 533.7,285.8 534.3,264.0" fill="none" stroke="#E2DBCE" stroke-width="2.4" opacity="0.85"/><polyline points="654.0,984.0 654.1,962.2 653.9,940.4 653.6,918.5 653.0,896.7 652.5,874.9 652.4,853.1 653.0,831.3 654.3,809.5 655.9,787.6 657.5,765.8 658.3,744.0 658.0,722.2 656.4,700.4 653.6,678.5 650.3,656.7 647.5,634.9 646.2,613.1 646.9,591.3 649.9,569.5 654.5,547.6 659.6,525.8 663.8,504.0 665.8,482.2 664.6,460.4 660.2,438.5 653.6,416.7 646.4,394.9 640.5,373.1 637.9,351.3 639.5,329.5 645.3,307.6 654.1,285.8 663.7,264.0" fill="none" stroke="#E2DBCE" stroke-width="2.4" opacity="0.85"/><polyline points="756.0,984.0 755.8,962.2 755.6,940.4 755.5,918.5 755.7,896.7 756.3,874.9 757.3,853.1 758.3,831.3 758.8,809.5 758.4,787.6 757.2,765.8 755.1,744.0 752.7,722.2 750.8,700.4 750.1,678.5 751.0,656.7 753.7,634.9 757.5,613.1 761.5,591.3 764.6,569.5 765.6,547.6 764.0,525.8 759.8,504.0 754.0,482.2 748.1,460.4 743.7,438.5 742.3,416.7 744.6,394.9 750.4,373.1 758.4,351.3 766.4,329.5 772.4,307.6 774.2,285.8 771.2,264.0" fill="none" stroke="#E2DBCE" stroke-width="2.4" opacity="0.85"/><line x1="90.0" y1="983.9999999999999" x2="810.0" y2="983.9999999999999" stroke="#E2DBCE" stroke-width="2.6"/><text x="450.0" y="1154" text-anchor="middle" fill="#6B655C" opacity=".6" font-family="Helvetica, Arial, sans-serif" font-size="26" letter-spacing="6">PORTRAIT</text></svg>