<svg xmlns="http://www.w3.org/2000/svg" viewBox="0 0 1200 900" width="1200" height="900"><rect width="1200" height="900" fill="#EFE9DD"/><line x1="192.0" y1="162.0" x2="192.0" y2="702.0" stroke="#E2DBCE" stroke-width="2.0" opacity="1.0"/><line x1="294.0" y1="162.0" x2="294.0" y2="702.0" stroke="#E2DBCE" stroke-width="2.0" opacity="1.0"/><line x1="396.0" y1="162.0" x2="396.0" y2="702.0" stroke="#E2DBCE" stroke-width="2.0" opacity="1.0"/><line x1="498.0" y1="162.0" x2="498.0" y2="702.0" stroke="#E2DBCE" stroke-width="2.0" opacity="1.0"/><line x1="600.0" y1="162.0" x2="600.0" y2="702.0" stroke="#E2DBCE" stroke-width="2.0" opacity="1.0"/><line x1="702.0" y1="162.0" x2="702.0" y2="702.0" stroke="#E2DBCE" stroke-width="2.0" opacity="1.0"/><line x1="804.0" y1="162.0" x2="804.0" y2="702.0" stroke="#E2DBCE" stroke-width="2.0" opacity="1.0"/><line x1="906.0" y1="162.0" x2="906.0" y2="702.0" stroke="#E2DBCE" stroke-width="2.0" opacity="1.0"/><line x1="1008.0" y1="162.0" x2="1008.0" y2="702.0" stroke="#E2DBCE" stroke-width="2.0" opacity="1.0"/><line x1="192.0" y1="162.0" x2="1008.0" y2="162.0" stroke="#E2DBCE" stroke-width="2.0" opacity="1.0"/><line x1="192.0" y1="297.0" x2="1008.0" y2="297.0" stroke="#E2DBCE" stroke-width="2.0" opacity="1.0"/><line x1="192.0" y1="432.0" x2="1008.0" y2="432.0" stroke="#E2DBCE" stroke-width="2.0" opacity="1.0"/><line x1="192.0" y1="567.0" x2="1008.0" y2="567.0" stroke="#E2DBCE" stroke-width="2.0" opacity="1.0"/><line x1="192.0" y1="702.0" x2="1008.0" y2="702.0" stroke="#E2DBCE" stroke-width="2.0" opacity="1.0"/><rect x="600.0" y="162.0" width="102.0" height="135.0" fill="none" stroke="#D89A5C" stroke-width="3.6" opacity="1.0"/><text x="1170" y="874" text-anchor="end" fill="#6B655C" font-family="Georgia, Times New Roman, serif" font-size="30.6" letter-spacing="6.73">KIDE</text><text x="30" y="874" fill="#6B655C" opacity=".5" font-family="Helvetica, Arial, sans-serif" font-size="22.0" letter-spacing="4.90">PLACEHOLDER</text></svg>